<?xml version="1.0" encoding="UTF-8" standalone="no"?>
<svg
   width="71"
   height="32"
   viewBox="0 0 71 32"
   fill="none"
   version="1.1"
   id="svg886"
   sodipodi:docname="watermark.svg"
   inkscape:version="1.3.2 (091e20e, 2023-11-25)"
   xml:space="preserve"
   xmlns:inkscape="http://www.inkscape.org/namespaces/inkscape"
   xmlns:sodipodi="http://sodipodi.sourceforge.net/DTD/sodipodi-0.dtd"
   xmlns="http://www.w3.org/2000/svg"
   xmlns:svg="http://www.w3.org/2000/svg"><defs
     id="defs890" /><sodipodi:namedview
     id="namedview888"
     pagecolor="#ffffff"
     bordercolor="#666666"
     borderopacity="1.0"
     inkscape:pageshadow="2"
     inkscape:pageopacity="0.0"
     inkscape:pagecheckerboard="0"
     showgrid="false"
     inkscape:zoom="8.85169"
     inkscape:cx="28.017249"
     inkscape:cy="18.358076"
     inkscape:window-width="1688"
     inkscape:window-height="976"
     inkscape:window-x="0"
     inkscape:window-y="38"
     inkscape:window-maximized="0"
     inkscape:current-layer="svg886"
     inkscape:showpageshadow="2"
     inkscape:deskcolor="#d1d1d1" /><g
     id="g1"
     transform="matrix(1.1458414,0,0,1.1458414,-3.7052409,-2.0580119)"
     style="fill:#b9ebfd;fill-opacity:1"><path
       style="fill:#b9ebfd;fill-opacity:1;stroke-width:2.04629"
       d="m 14.589632,24.112197 c 2.722117,-1.413982 3.844097,-4.224127 2.581926,-6.466769 -0.726661,-1.291136 -1.878211,-1.93857 -5.535428,-3.112158 -3.1981319,-1.026268 -3.2330569,-1.04551 -3.3097442,-1.823472 -0.064652,-0.65575 0.030385,-0.827284 0.5725235,-1.0334 1.4365737,-0.546186 3.4635937,-0.04121 4.3480317,1.083155 l 0.466718,0.593333 1.734693,-0.506032 c 2.10378,-0.6137 2.199592,-0.965714 0.677217,-2.488089 C 14.53238,8.7655768 12.99964,8.1129916 10.603035,8.0074726 8.8409501,7.9299003 8.4304218,7.9984456 7.2140765,8.5739386 5.5875882,9.3433878 4.6889944,10.318996 4.3098356,11.727086 c -0.487693,1.811153 0.4103009,3.821424 2.1156567,4.736157 0.4080442,0.218881 2.0759437,0.841114 3.7064407,1.382762 2.755093,0.915239 3.588911,1.408723 3.588911,2.12404 0,0.493719 -0.893097,1.119415 -1.810258,1.268248 -1.524775,0.247444 -2.5736194,-0.107971 -3.80738,-1.290105 -0.6313724,-0.604963 -1.2733581,-1.099932 -1.4266362,-1.099932 -0.1532745,0 -0.9654916,0.231928 -1.8049171,0.515416 l -1.5262281,0.515415 0.4711003,0.923428 c 0.7707764,1.510849 2.8163393,3.145632 4.709416,3.763705 0.340919,0.111307 1.6214161,0.170678 2.8455521,0.131929 1.672078,-0.05292 2.472559,-0.198678 3.218139,-0.585959 z m 10.351774,0.437285 c 0.526685,-0.122201 1.053744,-0.31831 1.171242,-0.435804 0.119969,-0.119968 0.03993,-0.82426 -0.182602,-1.606469 -0.394664,-1.387342 -0.39952,-1.392301 -1.230973,-1.257376 -1.382358,0.224322 -1.580831,-0.143062 -1.580831,-2.926458 v -2.442718 h 1.483799 1.4838 v -1.607448 -1.607451 h -1.4838 -1.483799 V 10.811007 8.9562563 H 21.13984 19.161441 v 1.8547507 1.854751 H 18.29589 17.430342 v 1.607451 1.607448 h 0.865548 0.865551 l 0.0056,2.782126 c 0.0075,3.843625 0.546507,5.016346 2.650701,5.767205 1.100263,0.392615 1.826842,0.420409 3.12383,0.119495 z m 9.748636,-0.471392 c 0.784706,-0.558758 0.793204,-0.559332 0.793204,-0.05337 0,0.471592 0.144496,0.511439 1.854751,0.511439 h 1.854751 V 18.60097 12.665769 h -1.854751 c -1.680427,0 -1.854751,0.04578 -1.854751,0.487149 0,0.465219 -0.03912,0.460607 -0.868852,-0.102462 -1.248977,-0.847583 -2.572295,-1.008162 -4.107093,-0.498382 -4.340464,1.44167 -5.60766,7.249185 -2.311345,10.592806 1.306079,1.324818 2.161774,1.641904 4.20656,1.558786 1.090626,-0.04434 1.708605,-0.213325 2.287526,-0.625554 z m -3.759934,-3.517792 c -0.864104,-1.026926 -1.031503,-1.856578 -0.616691,-3.05636 0.718884,-2.079266 3.552976,-2.417209 4.686132,-0.558788 0.770417,1.263525 0.64184,2.53632 -0.357123,3.535287 -0.70771,0.707707 -1.017433,0.840821 -1.956417,0.840821 -0.942168,0 -1.215135,-0.118305 -1.755901,-0.76096 z m 24.429201,3.989184 c 0.526686,-0.122201 1.054208,-0.318772 1.172267,-0.436832 0.121349,-0.121349 0.0308,-0.824594 -0.208245,-1.617742 -0.379672,-1.259648 -0.480553,-1.388617 -0.986792,-1.261556 -0.310141,0.07782 -0.842101,0.07173 -1.182139,-0.0137 -0.610271,-0.153164 -0.618251,-0.188634 -0.618251,-2.747107 V 15.88061 h 1.4838 1.483803 v -1.607382 -1.607451 h -1.483803 -1.4838 V 10.811027 8.9562756 H 51.55775 49.579348 v 1.8274074 1.827408 l -1.669273,-0.03447 c -1.383914,-0.0286 -1.806673,0.06353 -2.473001,0.53878 -0.792616,0.565342 -0.803724,0.566195 -0.803724,0.06182 0,-0.474433 -0.143158,-0.511438 -1.978399,-0.511438 h -1.9784 v 5.935203 5.935199 h 1.9784 1.978399 l 0.02928,-3.029425 c 0.01627,-1.666183 0.09992,-3.359096 0.186304,-3.762025 0.243908,-1.137924 1.454554,-1.814592 3.246523,-1.814592 h 1.483925 l 0.0056,2.757393 c 0.0043,2.15257 0.106403,2.979744 0.465784,3.771065 0.871364,1.91869 2.79147,2.674945 5.308746,2.090909 z m 5.843141,-3.112517 c 0,-2.119039 0.111164,-3.365227 0.351468,-3.940376 0.426658,-1.021144 1.648332,-1.722937 2.650382,-1.522527 l 0.70765,0.141531 v -1.848571 -1.848566 h -0.754183 c -0.845622,0 -2.181465,0.614004 -2.638326,1.212677 -0.259733,0.340347 -0.302348,0.301014 -0.309126,-0.285303 l -0.0079,-0.680073 h -1.854712 -1.854751 v 5.935199 5.9352 h 1.854751 1.85475 z"
       id="path1"
       sodipodi:nodetypes="cssccscssccscssccsccssccccscssccccccccccccccccccccscccsscccssssssccsssssscscccscccccccccccccccsscccccccscccccssscccssccccccccs" /></g></svg>
